<?xml version="1.0" standalone="no"?>
<!DOCTYPE svg PUBLIC "-//W3C//DTD SVG 20010904//EN"
 "http://www.w3.org/TR/2001/REC-SVG-20010904/DTD/svg10.dtd">
<svg version="1.0" xmlns="http://www.w3.org/2000/svg"
 width="251.000000pt" height="201.000000pt" viewBox="0 0 251.000000 201.000000"
 preserveAspectRatio="xMidYMid meet">

<g transform="translate(0.000000,201.000000) scale(0.100000,-0.100000)"
fill="#5b8aab" stroke="none">
<path d="M555 1875 c-72 -7 -174 -13 -227 -14 l-98 -1 0 -30 0 -30 75 0 75 0
0 -780 0 -780 -65 0 -65 0 0 -30 0 -30 310 0 310 0 0 30 0 30 -71 0 -70 0 3
288 3 288 37 75 c65 132 164 202 249 179 76 -21 74 -5 77 -441 l3 -389 -66 0
-65 0 0 -30 0 -30 310 0 310 0 0 30 0 30 -75 0 -75 0 0 313 0 313 25 50 c29
58 93 126 140 148 53 25 117 21 146 -10 l24 -26 3 -394 3 -394 -66 0 -65 0 0
-30 0 -30 315 0 315 0 0 30 0 30 -85 0 -85 0 0 390 c0 419 -1 431 -51 477 -74
68 -232 92 -357 54 -83 -25 -177 -85 -230 -148 l-39 -45 -13 48 c-29 102 -107
154 -240 162 -185 10 -310 -51 -409 -199 l-41 -61 0 486 0 486 -22 -2 c-13 0
-81 -7 -153 -13z"/>
</g>
</svg>
